<svg id="balão" xmlns="http://www.w3.org/2000/svg" width="335.756" height="224.445" viewBox="0 0 335.756 224.445">
  <defs>
    <style>
      .cls-1 {
        fill: #050605;
      }

      .cls-1, .cls-2 {
        fill-rule: evenodd;
      }

      .cls-2 {
        fill: #fffffd;
      }
    </style>
  </defs>
  <path id="Caminho_3" data-name="Caminho 3" class="cls-1" d="M248.582,280.9c-10.553,24.52-51.907,31.613-51.907,31.613,43,1.351,76.692-21.3,89.732-39.27,54.417-15.57,91.846-47.95,91.846-85.4,0-52.611-73.858-95.262-164.973-95.262S48.309,135.233,48.309,187.844s73.858,95.263,164.971,95.263A282.536,282.536,0,0,0,248.582,280.9Z" transform="translate(-42.497 -88.123)"/>
  <path id="Caminho_4" data-name="Caminho 4" class="cls-2" d="M241.767,275.473c-10.553,24.5-45.2,36.268-45.2,36.268,43,1.349,69.984-25.963,83.023-43.917,54.422-15.552,91.846-47.9,91.846-85.305,0-52.558-73.858-95.165-164.97-95.165S41.494,129.96,41.494,182.518s73.858,95.162,164.97,95.162A282.689,282.689,0,0,0,241.767,275.473Z" transform="translate(-41.494 -87.353)"/>
</svg>
